<?xml version="1.0" encoding="utf-8"?>
<!-- Generator: Adobe Illustrator 25.0.1, SVG Export Plug-In . SVG Version: 6.00 Build 0)  -->
<svg version="1.1" id="Layer_1" xmlns="http://www.w3.org/2000/svg" xmlns:xlink="http://www.w3.org/1999/xlink" x="0px" y="0px"
	 viewBox="0 0 1206.16 755.14" style="enable-background:new 0 0 1206.16 755.14;" xml:space="preserve">
<style type="text/css">
	.st0{fill:url(#SVGID_1_);stroke:#000000;stroke-width:4;stroke-miterlimit:10;}
	.st1{fill:url(#SVGID_2_);}
	.st2{fill:none;stroke:#000000;stroke-width:4;stroke-miterlimit:10;}
	.st3{fill:url(#SVGID_3_);stroke:#000000;stroke-width:4;stroke-miterlimit:10;}
	.st4{opacity:0.75;stroke:#000000;stroke-width:4;stroke-miterlimit:10;}
</style>
<linearGradient id="SVGID_1_" gradientUnits="userSpaceOnUse" x1="57.8571" y1="631.9286" x2="57.8571" y2="38.8929">
	<stop  offset="0" style="stop-color:#383838"/>
	<stop  offset="0.2257" style="stop-color:#696969"/>
	<stop  offset="0.4694" style="stop-color:#989898"/>
	<stop  offset="0.6568" style="stop-color:#B5B5B5"/>
	<stop  offset="0.7639" style="stop-color:#C0C0C0"/>
</linearGradient>
<path class="st0" d="M89.68,631.93H-1.93V38.89h91.61c15.38,0,27.96,12.58,27.96,27.96v537.11
	C117.64,619.34,105.06,631.93,89.68,631.93z"/>
<g id="XMLID_1_">
	<g>
		<linearGradient id="SVGID_2_" gradientUnits="userSpaceOnUse" x1="704.165" y1="377.9043" x2="704.165" y2="-621.5657">
			<stop  offset="0" style="stop-color:#616161"/>
			<stop  offset="0.0201" style="stop-color:#6A6A6A"/>
			<stop  offset="0.0904" style="stop-color:#858585"/>
			<stop  offset="0.1711" style="stop-color:#9B9B9B"/>
			<stop  offset="0.2654" style="stop-color:#ACACAC"/>
			<stop  offset="0.3821" style="stop-color:#B7B7B7"/>
			<stop  offset="0.5457" style="stop-color:#BEBEBE"/>
			<stop  offset="1" style="stop-color:#C0C0C0"/>
		</linearGradient>
		<path class="st1" d="M1203.9,54.16v647.47c0,28.2-23.07,51.27-51.27,51.27H255.69c-28.19,0-51.26-23.07-51.26-51.27V54.16
			c0-28.2,23.07-51.26,51.26-51.26h896.94C1180.83,2.9,1203.9,25.96,1203.9,54.16z M1195.71,699.42V56.57
			c0-24.05-19.67-43.72-43.71-43.72H257.14c-24.04,0-43.71,19.67-43.71,43.72v642.85c0,24.05,19.67,43.72,43.71,43.72H1152
			C1176.04,743.14,1195.71,723.47,1195.71,699.42z"/>
	</g>
	<g>
		<path class="st2" d="M1152.63,752.9H255.69c-28.19,0-51.26-23.07-51.26-51.27V54.16c0-28.2,23.07-51.26,51.26-51.26h896.94
			c28.2,0,51.27,23.06,51.27,51.26v647.47C1203.9,729.83,1180.83,752.9,1152.63,752.9z"/>
		<path class="st2" d="M1152,743.14H257.14c-24.04,0-43.71-19.67-43.71-43.72V56.57c0-24.05,19.67-43.72,43.71-43.72H1152
			c24.04,0,43.71,19.67,43.71,43.72v642.85C1195.71,723.47,1176.04,743.14,1152,743.14z"/>
	</g>
</g>
<linearGradient id="SVGID_3_" gradientUnits="userSpaceOnUse" x1="161.0357" y1="378" x2="161.0357" y2="84.8571">
	<stop  offset="0" style="stop-color:#383838"/>
	<stop  offset="0.2257" style="stop-color:#696969"/>
	<stop  offset="0.4694" style="stop-color:#989898"/>
	<stop  offset="0.6568" style="stop-color:#B5B5B5"/>
	<stop  offset="0.7639" style="stop-color:#C0C0C0"/>
</linearGradient>
<rect x="117.64" y="84.86" class="st3" width="86.79" height="293.14"/>
<!--<path class="st4" d="M1152.64,743.14H256.5c-23.69,0-43.07-19.38-43.07-43.07V55.93c0-23.69,19.38-43.07,43.07-43.07h896.14
	c23.69,0,43.07,19.38,43.07,43.07v644.14C1195.71,723.76,1176.33,743.14,1152.64,743.14z"/>-->
</svg>
